<svg xmlns="http://www.w3.org/2000/svg" width="40" height="40" viewBox="0 0 2000 2000">
    <path d="M969.5 76.3c-.5 1.8-3.8 176.8-3.3 177.3.6.5 75 2.2 76.1 1.6.4-.2.7-5.9.7-12.6v-12.3l-4.6-.7c-2.6-.3-13.4-.6-24-.6H995v-12.3c0-6.8.3-18.6.7-26.2l.6-13.8 18.7.5 18.7.6.7-6.7c.3-3.6.6-9.3.6-12.7v-6.1l-8.2-.6c-4.6-.4-13.4-.7-19.7-.7h-11.4l.7-4.6c.3-2.6.6-13.7.6-24.7v-20l24.3.4 24.2.4.3-12.6.3-12.7-13.3-.6c-31.9-1.3-62.9-1.5-63.3-.3M907 78.5c-9.1 1.3-16.5 2.4-16.6 2.4 0 .1-.7 28-1.4 62.1-.7 34.2-1.7 61.7-2.1 61.3s-8.5-27.1-17.9-59.3c-9.5-32.2-17.4-58.7-17.6-58.9-.4-.4-37.4 3.9-38.4 4.4-.6.4 21.4 176.2 22.1 176.9.5.5 23.2-2.3 23.8-3 .3-.2-2.8-26.6-6.8-58.5-4.1-31.9-7.2-58.1-7-58.4.3-.2 8.1 25.1 17.3 56.3 9.3 31.2 17.2 57.1 17.6 57.6.8.7 24.2-1.8 25.9-2.8.4-.3 1.4-27.6 2.1-60.6s1.6-59.7 2-59.3 3.9 26.9 7.9 58.8 7.5 58.2 7.7 58.4c.5.5 25.3-2.5 25.9-3.1.3-.2-4.5-39.5-10.5-87.2-6.1-47.7-11-87.4-11-88.1 0-1.9-2.6-1.8-23 1m172.6 4.7c-.7 4.1-24.3 166.2-24.8 170.2l-.3 3 22 3.3c33.5 5.1 43.4 4.6 54.1-2.8 9-6.1 13.3-15.1 16.5-34.3 4.2-24.7 2.2-36.6-7.6-46.2l-5.2-5.1 3.1-1.1c12.7-4.6 19.9-21.4 20-46.2.1-12.8 0-13.8-2.7-19.2-4.2-8.6-12.9-14.7-25-17.7-4.9-1.2-44.6-7.1-47.7-7.1-1.2 0-2 1-2.4 3.2m34 27.3c12 1.4 15.4 5 15.4 15.7-.1 8.4-2.4 21-4.5 24.6-3.2 5.4-6.6 6.6-16.8 5.8-5-.3-9.2-.8-9.5-1-.4-.5 5.5-43 6.4-45.5.2-.7 1-1.1 1.8-.8.7.3 3.9.8 7.2 1.2m-9.1 72.1c6.8.8 12.7 3.7 14.8 7.3 2.1 3.7 2.2 11.7.2 25.4-2 13.2-3 16.1-6.6 19.2-2.4 2-4.1 2.5-8.2 2.5-4.4 0-17.8-1.7-18.3-2.3-.1-.1 1.6-12.1 3.7-26.7s3.9-26.6 3.9-26.8 1.2-.1 2.8.2c1.5.3 5 .8 7.7 1.2m77.5 4.6c-21 45.1-38 82.1-37.8 82.2 1.2 1 23.8 6.7 24.5 6.3.5-.3 3.7-6.9 7.2-14.6 3.5-7.8 6.7-14.1 7-14.1 1.2 0 31.2 8.8 31.7 9.3.3.2-.4 7.6-1.5 16.3-1.2 8.6-2 15.8-1.8 15.9.8.6 26.9 7.6 27.2 7.3s20.4-170.3 20.8-175.7c.2-4 1.6-3.4-25-10.8l-14.2-4zm41.7 1.6c-3 22.6-5.6 41.5-5.9 41.8-.9.8-24.3-6.2-24.3-7.3 0-1.9 35-78.5 35.3-77.1.1.7-2.2 19.9-5.1 42.6m-491.6-77.2c-10.1 2.9-18.6 5.5-18.8 5.8-.3.3 20.6 178.7 21.1 179.3.3.3 23.9-6.6 24.4-7.2.5-.5-2.5-27.2-3.4-30.6-.4-1.3 2.6-2.5 15.8-6.2 8.9-2.6 16.5-4.3 16.9-3.9s3.5 6.9 6.9 14.4c3.8 8.4 6.8 13.8 7.7 13.8 1.5 0 25.3-6.7 25.9-7.3.8-.7-76-163.7-77-163.6-.6.1-9.4 2.5-19.5 5.5m27.3 73.7c9.7 21.4 17.6 39.2 17.6 39.6s-5.6 2.3-12.5 4.3c-6.9 1.9-12.5 3.4-12.5 3.3s-2.5-19.2-5.5-42.4c-5.6-42.7-5.8-44.8-5.1-44 .2.2 8.3 17.9 18 39.2m661.6 99.9c-26.7 40.2-48.6 73.7-48.8 74.3-.4 1.6 60.7 42 61.7 40.9 1.9-2.1 13.1-19.4 13.1-20.2 0-.5-8.3-6.4-18.5-13.2-14-9.3-18.4-12.7-18-13.9.4-.9 19-29.3 41.6-63.2 22.5-33.9 40.9-62.1 40.9-62.6 0-1.1-21-15.3-22.5-15.3-.6 0-22.8 32.9-49.5 73.2m-103.9-52.7c-3 6.4-5.2 11.7-5 11.9s9.4 4.5 20.4 9.6 21.3 9.9 22.8 10.7l2.8 1.4 5.5-11.7c3-6.4 5.3-11.8 5.2-12-.4-.3-45.7-21.4-46.1-21.4-.1 0-2.7 5.2-5.6 11.5m-712.7 10.8-22.2 11.2 5.6 11.2c3.1 6.2 6 11.3 6.4 11.3 1.8 0 44.8-22.1 44.8-23 0-1.9-10.5-22-11.5-21.9-.5 0-11 5-23.1 11.2m-159.6 8-16.7 12.1 40.4 80c22.2 44 40.8 80.2 41.4 80.4s5.6-2.9 11.1-6.9l10-7.3-7.6-14.4c-4.1-8-7.2-14.8-6.7-15.2.4-.3 6.6-4.9 13.6-10l12.9-9.3 11.6 11.6 11.7 11.6 11-8c6.1-4.4 11.1-8.3 11.3-8.7.1-.4-28.5-29.4-63.5-64.4l-63.8-63.7zm77.7 88.5c1.6 1.9 2.4 3.7 1.9 4.1-4.7 4.2-19.7 14.2-20.3 13.5-.8-.9-40.1-76.4-40.1-77.1 0-.5 55.6 56.1 58.5 59.5m1001.1-75.1c-8.7 11.7-8.5 10.2-1.7 15.2l2.4 1.8-10.7 8.1-10.7 8 4.7 3.4c2.6 1.8 5.1 3.2 5.6 3 .4-.1 6.5-3.4 13.4-7.4 12.4-7 12.7-7.3 20.1-17 4.1-5.5 7.3-10.1 7.1-10.2-10.3-7.9-20.9-15.6-21.5-15.6-.4.1-4.3 4.9-8.7 10.7m-9.8 84.6c-37.2 30.9-68.3 56.8-69 57.5-1.1 1.2-.2 2.4 5.2 7.4 3.6 3.3 7.9 7.1 9.7 8.5l3.2 2.5 10.3-8.8c5.7-4.8 11.2-9.5 12.3-10.5 2-1.8 2.3-1.6 14 8.7 6.6 5.8 12.4 10.9 12.8 11.3.5.5-3 6.8-7.7 14.1s-8.6 13.6-8.6 14c0 .3 4.7 4.8 10.5 9.9l10.5 9.2 3.4-5.3c19-29.8 92.6-147.2 92.6-147.7 0-.9-28.6-26-30.3-26.6-.6-.2-31.7 24.9-68.9 55.8m52.9-6.1c-4 6.2-14.2 22.1-22.7 35.3-8.4 13.2-15.9 24.6-16.6 25.4-1 1.1-2.8 0-10.8-7-5.3-4.6-9.5-8.6-9.4-9 .4-1 65.2-55.8 66-55.8.5-.1-2.5 5-6.5 11.1m-1195-33.8-8.7 8.3 35.5 37.1c19.5 20.5 35.5 37.4 35.5 37.7 0 .2-6.9-3.7-15.2-8.8-42.1-25.7-73.7-44.7-75.1-45.3-1.2-.4-5.2 2.7-13.9 11.1-6.8 6.4-12.3 12-12.3 12.4s27.6 29.6 61.3 65l61.4 64.2 8.6-8.2c4.8-4.6 8.7-8.8 8.7-9.5 0-.6-17.3-19.3-38.5-41.5-44.3-46.4-48.5-51-45-48.8 14.5 9.2 107.8 65.3 109 65.5.8.2 6-4 11.7-9.4l10.2-9.7-61.2-64c-33.6-35.2-61.6-64.1-62.2-64.2-.5-.1-4.9 3.5-9.8 8.1M1641 374.2c-18.1 6.4-33.3 23.1-38.4 42.3-1.1 3.7-2 13.8-2.6 26.5-1.2 23.2-2.1 29.2-5.8 36.8-3.1 6.4-10.9 13.7-16.2 15.3-7.3 2.2-16.1-3.8-17.6-12-.8-4 2.3-11 6.4-14.1 1.3-1.1 4.2-3.5 6.4-5.5l3.9-3.6-4.4-5.2c-2.5-2.9-6.5-7.4-9-10.2l-4.4-5-9.2 9c-7.1 6.9-10.1 10.7-12.7 16.1-6.9 13.8-5.3 26.4 4.8 39.9 18.9 25 43.6 26 66.8 2.6 14.6-14.6 17.5-23.3 19-55.6 1.1-23.3 2.4-30.3 7.2-37.9 3.9-6.1 11.7-12.3 16.5-13.2 9.8-1.8 18.6 10.5 13.9 19.4-.8 1.5-3.7 4.9-6.5 7.6l-5 4.9 6.2 7c3.4 3.8 7.4 8.4 8.9 10.1l2.8 3.1 7.6-7.8c19.7-20.3 19.3-41.4-1.4-61-11.5-10.8-24.2-14.1-37.2-9.5M290.1 403c-6.4 1.4-12.4 4.6-18.3 9.8-21 18.9-23.6 42.8-6.6 60.8 5.7 6.1 79.7 66.4 87.5 71.4 2.7 1.7 7.9 4 11.6 5.2 17.4 5.2 33.5-1.7 45.4-19.5 11.2-16.7 11-31.8-.7-47.3-2.5-3.4-17.3-16-42.6-36.5-21.3-17.3-41.4-33.3-44.7-35.6-9.5-6.7-22.5-10.1-31.6-8.3m12.6 29.9c5.4 2.7 83.7 66.7 85.6 69.9 3.7 6.4 1.1 15.1-5.5 19.2-4.1 2.5-8.3 2.5-12.8.2-4.6-2.3-80.6-63.8-84.7-68.5-4.4-5-5-8.7-2.3-14.2 4.3-8.8 10.9-11 19.7-6.6m1403.2 26.4c-8.8 3-18.6 9.6-25.8 17.3-9.9 10.6-14.4 22.4-18.1 47.9-3 20.9-5.6 28.6-12.2 36.1-4.5 5.1-12.4 9.4-17.5 9.4-9.8 0-16.9-13.1-11.4-21.3 1-1.5 5.3-5.3 9.5-8.3 4.8-3.5 7.4-6 6.9-6.7-.6-1.1-13.2-19.7-14-20.6-.8-1-15.1 10-20.8 16-7.7 8.2-10.5 14.8-10.5 24.8 0 19 15.2 39.2 32.8 43.7 10.7 2.6 21.6 0 34.6-8.3 17-10.9 25.2-25 29.1-49.5 4.7-30 7.4-38.3 14.7-45.9 4.6-4.8 12.6-8.9 17.2-8.9 6.1 0 12.6 7.3 12.6 14.1 0 4.6-3.2 9.1-9.5 13.5-3 2-5.5 3.9-5.5 4.2 0 1.1 14.4 21.2 15.3 21.2 1.7 0 10.2-6.8 15.5-12.4 10.1-10.6 13.2-22.5 9.4-35.3-4.1-13.5-15.8-27.1-26.7-31.2-7.5-2.8-17-2.7-25.6.2m-788.4 7.4c-13.2 1.1-36.2 5-49.9 8.5-48.7 12.2-90.7 32.9-137.2 67.8-78 58.6-134.7 124.9-175.3 205-34.8 68.5-54.9 140.3-63.3 225.5-1.7 18.3-1.5 64.9.6 83.5 9.3 85.9 40.2 156.2 97 221 57.8 65.8 157.8 130.3 267.1 172 45.6 17.5 96.2 32 147.9 42.5 28.2 5.7 59.3 8.5 94.6 8.5 41.9 0 74.7-4.8 110-16.2 55.4-17.9 100.5-46.7 146-93.4 21.9-22.5 37.7-42.2 55.3-69 78.6-119.8 102.7-273.5 64.1-408-8.8-30.7-19-55.8-37.5-92.4-67.2-133.1-171.5-236-309.9-306-57.4-28.9-102.2-43.4-150.2-48.5-13.3-1.3-47.5-1.8-59.3-.8m-719.8 52c-1.3 2.1-4.7 7.5-7.5 11.9l-5.1 8.2 75.5 47.3c45.4 28.4 75.8 46.9 76.4 46.3 1.6-1.6 39.1-61.7 38.7-62-1.7-1.7-21-13.3-21.6-13-.4.3-6 9-12.5 19.4l-11.8 19-63.1-39.5c-34.8-21.7-63.9-39.9-64.9-40.4-1.4-.8-2.2-.2-4.1 2.8m1567.1 32.8c-3.1.8-9.9 3.5-15 6.1-26.3 13.1-80.2 41.2-86.4 45-18.6 11.4-25.3 27.9-18.9 46.9 5 15.1 15.4 27.1 26.8 30.9 6.6 2.2 17.1 2 25.1-.5 8.1-2.4 93.6-46.4 102.2-52.5 11.4-8 17.3-18.5 17.4-30.5 0-19-13.8-40-29.6-44.9-7.6-2.3-13.5-2.4-21.6-.5m17.9 29c3 2 6.3 8.6 6.3 12.5 0 4.1-2.3 8.4-5.7 10.8-1.6 1.1-23.5 12.7-48.8 25.8-51.2 26.5-53 27.2-59.2 22-3.9-3.3-6.3-8.3-6.3-13.2 0-6.6 4.3-9.5 52-34.2 23.9-12.4 45.8-23.4 48.5-24.4 5.3-1.9 9.5-1.7 13.2.7m-1617.2-6.2c-1.8 4-9.2 19.5-16.4 34.6s-13 27.5-12.9 27.7c.6.5 160.2 76.4 160.8 76.4.5 0 30.8-62.7 32.7-67.8.4-.8-3.5-3.1-10.8-6.6-6.3-3-11.6-5.3-11.9-5.1s-5 9.8-10.4 21.4c-5.5 11.6-10.3 21.1-10.8 21.1-1.6 0-45.8-21.3-45.8-22.1 0-.4 3.6-8.3 8-17.5s7.9-16.8 7.8-16.9c-1.6-1.2-22.9-10.7-23.3-10.4-.2.3-4 8-8.4 17.2l-8 16.7-4.3-1.9c-8.7-3.8-39.8-19-39.8-19.4 0-.3 4.5-10.1 10.1-21.7 5.5-11.7 9.7-21.6 9.2-22-.4-.4-5.7-3-11.6-5.8l-10.8-5.1zm1644.6 80.8c-8.7 2.1-102.7 37.1-108 40.2-7.6 4.6-15.5 13.4-17.7 19.9-2.1 6.1-2.3 17-.5 23.8 3.6 13.1 12.6 25.6 21.6 30 11.8 5.7 22.2 5 44.6-3.1 7.9-2.9 14.5-5.3 14.6-5.4.2-.1-1.8-5.8-4.4-12.7l-4.6-12.6-6.6 2.5c-12.7 4.8-23.9 8.3-26.5 8.3-6.8 0-12.7-7-12.8-15.2-.1-4.9 2.4-8.5 7.8-11.5 4.8-2.6 95.6-35.9 100.6-36.8 8.5-1.6 16 4.9 16.2 14 .2 7.9-4.5 11.8-21.2 17.7-5.1 1.8-9.1 3.7-8.9 4.3.3.5 2.3 6.3 4.7 12.7l4.2 11.7 8.2-3c20.6-7.5 31-14.9 36.2-25.6 8.9-18-1.8-47.9-20.4-57-4.5-2.2-7.1-2.7-14.1-2.9-4.7-.2-10.6.2-13 .7M136 678.4c-14.2 3-24 13.7-29 31.7-5.7 20.8 1.7 37.1 21.3 46.5 3.9 1.9 29 10.7 55.7 19.6 47.6 15.9 48.7 16.2 58.5 16.6 13.3.5 19.6-1.7 27.6-9.7 12.9-13 17.8-36.6 10.5-50.9-3.3-6.6-10-13.1-17.4-17-4.9-2.6-31-12.2-33.2-12.2-1.2 0-9.1 24.3-8.2 25.1.4.3 5.9 2.3 12.2 4.4 13.5 4.4 16.5 5.8 20.2 9.3 7.9 7.3 1.3 23.2-9.5 23.2-4.2 0-98.4-30.7-105.4-34.3-1.7-.9-4.1-2.9-5.2-4.3-4.5-5.7-1.3-17.7 5.6-20.9 4.4-2.1 8.8-1.5 22.3 3 7.2 2.4 10.2 3.1 10.5 2.2 2.3-6 7.5-22.4 7.5-23.3 0-2.4-29-10.6-36.5-10.3-1.1 0-4.5.6-7.5 1.3m1653.8 95c-46 12.2-83.9 22.4-84.3 22.7-.6.7 5.4 24.9 6.5 26.2.6.6 171.9-43.7 172.6-44.6.1-.1-1.4-6.2-3.4-13.5-3.1-11.7-3.7-13.2-5.6-13.1-1.2 0-39.8 10.1-85.8 22.3M102.7 787.7c-5.7 1.9-12.8 7.9-16.1 13.6-1.4 2.3-3.4 7.1-4.5 10.7-2.2 7.1-10.5 49-9.8 49.6.8.9 173.8 34.6 174.4 34 .7-.6 5.2-22.3 5.3-25.1 0-1.9-2.7-2.6-35-9-34.9-6.9-35-7-35-9.5 0-3.1 2.3-11.9 3.9-14.8 2.1-4 7-6.2 13.5-6.2 3.3 0 15.2 1.8 26.4 4 13.8 2.8 22.5 4 26.6 3.8l6-.3 2.1-10.5c1.2-5.8 2.4-12 2.8-13.8l.7-3.2h-6.5c-3.6 0-15.8-1.9-27.2-4.1-32.3-6.5-42.7-5.7-52.4 3.7l-3.6 3.5-2.7-5.5c-5.1-10.4-13.9-15.4-34.8-19.7-15.7-3.3-26.7-3.7-34.1-1.2m32.2 29.8c19.5 3.9 23.1 6.6 23.1 16.4-.1 5.8-1.3 13.7-2.3 14.8-.6.6-50.2-8.8-51.9-9.9-.8-.4-.7-2.5.1-7 3.2-17.3 7.2-19.2 31-14.3M1716 832.7c0 1 .8 6.9 1.7 13l1.8 11.3 16.4.2 16.5.3 2.7 16c1.5 8.8 2.4 16.3 2 16.7-.3.3-7.2 2.7-15.3 5.3-8.2 2.6-14.8 5.1-14.8 5.6 0 2.3 4.1 26.4 4.6 26.8.4.4 170.1-55.5 171.2-56.4.2-.2-1.2-9.3-3-20.4l-3.2-20.1h-90.3c-85.3 0-90.3.1-90.3 1.7m149.5 22.8c-3.4 1.4-82.5 26.5-83.2 26.5-.5 0-1.7-5.1-2.7-11.3-.9-6.1-1.9-12-2.2-12.9-.5-1.7 1.6-1.8 30.8-2.1 17.2-.1 37.4-.3 44.8-.4s13.1 0 12.5.2M155 912l-89.5 8.6-.6 8.4c-.4 4.7-1 14-1.4 20.7l-.7 12.1 9.4 2.2c91.4 21 166.4 37.4 166.9 36.6.4-.6.8-6.5 1-13.1l.4-12-15.5-3.3c-8.5-1.8-15.5-3.4-15.7-3.6-.4-.3 1.8-33 2.3-33.4.1-.2 7.3-1 16-1.8 8.6-.7 15.8-1.5 16-1.6.6-.7 2-27.3 1.5-27.9-.3-.3-40.9 3.3-90.1 8.1m30.5 37.7c-.4 7.1-.9 13-1.1 13.3-.5.5-82.4-16.9-83.9-17.9-.7-.4 62.8-6.5 83.9-8 1.8-.1 1.8.5 1.1 12.6m1626-19.1c-25.3.9-42 1.9-47.5 3-14.9 2.7-24.4 9.5-29.8 21.3-3.7 8.1-4.3 24-1.3 33.9 3.8 12.6 11.8 21.1 23.4 24.8 5.8 1.9 30.2 3.1 39.2 1.9l5.5-.6v-6.7c0-3.7-.3-9.6-.6-13.2l-.6-6.5-16.7.3c-16.1.4-16.7.3-20.1-2-4.8-3.3-6.1-6.3-5.7-13 .4-6.4 2.2-9.2 7.5-11.5 4.5-1.9 107.4-5.6 113-4.1 2 .5 4.7 1.9 6 3.1 4.3 4 5.1 12.9 1.6 18.4-2.7 4.3-7.1 5.6-20.6 6.2-7 .4-12.8.9-13 1.1-.2.3-.1 6.3.2 13.4l.5 12.9 11-.2c20.3-.4 31.7-4.2 40.4-13.6 6.8-7.6 9.5-15.6 9.4-28.5-.3-20.7-9.1-34.3-25.8-39.7-6.9-2.2-28-2.4-76-.7m-1629.1 78.5c-9.8.9-15.3 2.3-21.5 5.5-5.1 2.5-12.6 10.4-13.5 14.1-.4 1.3-.9 2.3-1.2 2.3s-2-1.8-3.9-3.9c-1.8-2.2-5.9-5.2-9.1-6.8-5.5-2.7-6.2-2.8-21.7-2.8-13.8 0-17 .3-23.2 2.3-12.8 4-19.7 11.4-23 24.6-1.6 6.5-1.6 8.4.1 32.9.9 14.4 1.8 26.2 2 26.4.5.6 176.7-11.5 177.3-12.1.9-.9-1.7-42.1-3.2-50.6-1.7-9.8-4.4-15.9-9.7-21.6-9.5-10.4-22.1-13-49.4-10.3m28.6 29.4c1.5.8 3.2 2.6 3.9 4.2 1.6 3.4 3.2 21.6 2 22.4-.5.3-9.8 1.1-20.7 1.7-10.8.7-22.7 1.5-26.4 1.9l-6.8.6v-11.1c0-10.4.2-11.2 2.5-14.1 3.6-4.2 9.3-6 22.5-7 12.7-1 19.2-.6 23 1.4m-79.1 9.9c3.7 3.5 4.8 7 5.3 15.8.4 6.7.4 6.8-2.2 6.8-2.8 0-26.7 1.6-37.1 2.5l-6.7.6-.7-8.9c-1.3-16.8 3.6-20.3 27.7-19.9 10.3.2 10.8.3 13.7 3.1m1600.7-14c-.3 2.2-.8 8.7-1.1 14.3-.4 7.9-.2 10.3.7 10.3.7 0 40.8 2.3 89.1 5.1s88 4.9 88.2 4.7c.1-.1.6-6.5 1-14l.7-13.6-4.3-.6c-2.4-.3-40.6-2.6-84.9-5.1s-82.4-4.7-84.7-4.9l-4.2-.3zm20.7 44.6c-8 1.6-14.1 5.1-19.7 11.1-8.4 9-12.1 20.9-11.4 35.8.8 17.6 10.2 29.4 27.8 35 5.7 1.9 86.3 14.8 105.9 17.1 19.8 2.2 35.5-5.3 42.7-20.5 8.8-18.6 6.4-40.7-5.6-51.9-9.9-9.3-13.7-10.3-74.1-19.6-51.1-7.9-57.4-8.6-65.6-7m63.7 35.5c54.1 8.3 56.5 8.9 59.5 15.2 1.8 3.8 1.6 10.4-.6 14.4-1.7 3.3-7 5.9-12 5.9-5.3 0-100.6-14.5-106.2-16.2-5.7-1.7-9.7-6.8-9.7-12.4 0-9.9 6.7-16 16.5-14.8 1.7.2 25.3 3.8 52.5 7.9m94.2 22.2c-.7 4.3-1.2 8.6-1.2 9.6 0 1.8 22.9 31.1 23.7 30.4.2-.3 1.3-6.2 2.4-13.2 1.5-9.5 1.7-13.1.8-14.1-1.4-1.7-23.5-20.4-24.1-20.4-.3 0-1 3.5-1.6 7.7M239 1143.8c-5.8 1.4-10.6 2.7-10.8 2.8-.1.1 2.2 10.1 5.3 22.2 3 12.2 5.5 22.8 5.5 23.6 0 1-6.3 2.9-23.2 7.1-12.8 3.1-24 5.8-24.9 6.1-1.4.4-2.4-2.5-6-17.2-2.4-9.6-4.7-18-5-18.6-.6-.9-22.6 3.7-24.1 5.1-.3.3 1.3 8.7 3.7 18.6s4.1 18.3 3.7 18.6c-.4.4-10.6 3-22.7 5.9s-22.5 5.5-23.1 5.7c-.8.3-3.2-7.6-6.9-22.9-3.1-12.8-5.8-23.4-6-23.6-.4-.4-23.5 5.5-24.2 6.1-.5.6 16.4 71.3 17.6 73.3.9 1.5 172.5-40.9 172.8-42.7.1-.8-3.7-17.4-8.5-36.9-7.7-31.3-9-35.5-10.7-35.7-1.1-.1-6.7 1-12.5 2.5m1465.7 65.5c-17.3 48.8-18.4 53.8-14.7 65.8 1.9 6.3 3 8 8.3 13.3 3.5 3.4 8.7 7.3 11.9 8.9 9.5 4.5 99.8 35.4 107.4 36.6 16 2.7 29.9-3.7 38-17.5 2.1-3.6 19.8-52.5 19.1-52.9-.1-.1-29.2-10.2-64.7-22.5-35.5-12.2-73.4-25.3-84.2-29.1l-19.7-6.8zm76.6 51.8c32 11.1 58.5 20.4 59 20.8.8.8-3 12.7-5.7 17.9-2 3.8-6.2 6.2-11 6.2-3.4 0-94.9-31.1-101.5-34.4-3.7-2-7.1-7-7.1-10.7 0-2 2.5-10.6 5.5-18.7.2-.6.9-1.2 1.5-1.2s27.3 9.1 59.3 20.1m-1536.8-21.6c-8.3 1.8-99.7 36.9-106.4 40.8-12 7.1-19.1 18.7-19.1 31.1 0 7.7 1.5 12.8 11.7 39.4 6.9 17.9 8 20.3 9.8 19.9 1.6-.3 144.4-54.9 160.3-61.2 2.3-1 4.2-2.1 4.2-2.7 0-1.5-16-42.9-18.5-47.8-5.2-10.1-13.2-16.9-23.2-19.5-6.8-1.8-10.8-1.8-18.8 0m15 28.7c1.4.6 3.4 2.5 4.4 4.2 2.1 3.5 7.5 17.5 7 18s-115 44.3-116.8 44.8c-1.9.4-8.1-15.2-8.1-20.3 0-4.4 2.8-8.2 7.8-10.8 2.7-1.4 82.9-32.4 94.2-36.4 2.7-1 8.9-.7 11.5.5m1396.1 63.9c-9.2 18.8-16.5 34.3-16.4 34.4.2.2 5.4 2.8 11.6 5.9l11.3 5.7 10.4-21.6c5.7-11.8 10.6-21.5 10.9-21.5 1.2 0 45.1 22.2 45.4 22.9.2.5-3.3 8.2-7.7 17-4.5 8.8-8.1 16.3-8.1 16.6 0 .5 21.5 11.5 22.5 11.5.3 0 4.3-7.7 9-17l8.5-17 21.9 11 22 10.9-10.5 21.7c-5.8 11.9-10.4 21.7-10.2 21.9 1.2 1.1 21 10.5 22 10.5.7 0 8.8-15.4 18-34.1l16.8-34.1-57.3-28.3c-31.4-15.5-67.3-33.3-79.6-39.4s-22.7-11.1-23.1-11.1-8.2 15.4-17.4 34.1m-1398.2 73c-36.8 31.4-67.7 57.9-68.6 58.8-1.7 1.5-1.2 2.6 8.8 18.9 5.8 9.4 11 17.2 11.5 17.2 1 0 162.8-66.3 165.4-67.8 1-.5-.2-3.3-5.1-11.2-3.5-5.8-6.8-10.6-7.2-10.8-.5-.1-7.3 2.5-15.2 5.8-13.6 5.8-14.5 6-15.8 4.3-2.7-3.7-16.2-26.2-16.2-27 .1-.4 5.5-5.3 12-10.7 6.6-5.5 12-10.3 12-10.7 0-.7-12.7-21.8-13.9-23.2-.4-.4-30.9 25-67.7 56.4m45 15.6c3.6 5.9 6.2 11.1 5.8 11.4-.7.8-78.9 33.9-79.8 33.9-.8 0 65.9-55.9 66.8-56 .3 0 3.6 4.8 7.2 10.7m1304.7-3.1c-4 5.2-7.1 9.9-6.9 10.4.2.4 21.2 16.7 46.8 36s47 35.6 47.5 36.2c.6.6-2.8-.9-7.5-3.4-43.4-23.1-99.2-51.9-99.9-51.6-.5.1-4.4 4.8-8.6 10.2-7.4 9.7-7.5 9.9-5.8 12 1 1.1 20.1 20.8 42.6 43.8 22.4 22.9 40.7 41.9 40.7 42.3 0 .3-7.3-4.9-16.2-11.8-9-6.8-30.2-22.8-47.3-35.7-17-12.8-31.5-23.7-32.1-24.2-.7-.5-4 3-9.2 9.8l-8.1 10.7 2.2 1.7c6.7 5.2 138.5 104.8 139.4 105.3.6.4 6.3-6.3 12.8-14.8l11.7-15.5-14.3-15c-7.9-8.2-27.6-28.5-43.8-45-16.1-16.5-29.1-30-28.9-30 .3 0 25.2 13.1 55.4 29 30.2 16 55.2 28.9 55.6 28.8 1-.4 22.8-29.6 22.8-30.6 0-.7-122.2-93.9-140-106.9-1.4-1-2.7.3-8.9 8.3M365 1450.8c-3 1-7.4 2.8-9.6 4-4.1 2.1-28.4 20.8-28.4 21.9s15.6 20.2 16.5 20.2c.6 0 5.9-4 12-8.9 15.5-12.7 20.5-14.2 27.5-8.4 6.1 5.2 7.7 12.2 4.1 18.1-2.6 4.1-81.9 67.9-87.8 70.5-6 2.6-10.8 1.4-15.2-3.9-7.2-8.7-4.8-15.3 9.4-26.5 5.2-4 9.4-7.5 9.5-7.8 0-.4-13.9-18.2-15.8-20.2-.9-.9-12.5 8.2-20 15.5-16.8 16.5-18.4 34.1-4.7 53.2 11.5 16.2 27.1 22.6 43.1 17.7 3.8-1.2 9.1-3.5 11.8-5.2 8.5-5.4 85.1-67.6 89.5-72.7 2.3-2.6 5.4-7.3 6.9-10.3 2.4-4.8 2.7-6.7 2.7-15 0-8.8-.3-10.1-3.4-16.4-4.6-9.3-14.5-19.7-22.7-23.7s-17.3-4.8-25.4-2.1m11.7 121.4-63.8 62.2 10 10 10.1 10.1 10.2-10.1c5.7-5.5 26.5-25.7 46.3-44.9s44-42.8 53.8-52.4l17.8-17.5-9.8-9.8c-5.4-5.4-10-9.8-10.3-9.7-.3 0-29.2 28-64.3 62.1m1148.5-47c-15.7 2.3-32.6 18.2-36.9 34.5-2.5 9.6.2 21 7.2 30.9 4.1 5.7 100.6 106.5 101.6 106.2.4-.2 4.8-4.3 9.9-9.2l9.2-8.9-5.5-5.6c-33-33.9-91.5-95.4-93.4-98.3-3.3-4.8-3.5-10.7-.7-14.5 4.9-6.7 12.3-9 18.4-5.8 1.6.8 25 24.4 52 52.5 27 28 49.6 51 50.1 51 1.3 0 20-18.1 19.7-19-.5-1.2-90.1-94.1-97.4-101-11.1-10.4-22.3-14.6-34.2-12.8m-1110.3 83.5c-31 36.7-56.9 67.4-57.6 68.3-.9 1.3.4 2.8 8.3 9.3 5.2 4.3 9.8 7.5 10.4 7.2.5-.3 15.5-17.8 33.1-38.8 17.7-21 32.6-38.7 33.1-39.2 1.3-1.4-1.4 4.5-24.5 53.7l-20.5 43.8 13.6 11.5c7.5 6.3 13.9 11.2 14.3 10.7 11.9-13.6 113.9-135.3 113.8-135.9 0-1.3-18.3-16.2-19.2-15.6-.4.2-18.6 21.6-40.4 47.4s-39.7 46.8-39.9 46.6 11.8-26.3 26.7-58.1c14.8-31.8 26.8-58.4 26.5-59.1-.3-1-13.1-12.2-19.7-17.3-1.5-1.1-8.6 6.9-58 65.5m1033.7-19.6c-11.3 2.8-27.8 16.2-32.5 26.4-5.5 11.7-3.3 26 5.9 39.9 12.9 19.3 27.3 26.4 60.3 30.1 17.1 1.9 22.8 3.1 29.4 6.2 9.7 4.5 18.3 15.5 18.3 23.3 0 2.6-.9 4.2-4.4 7.5-8.6 8.3-15.6 6.4-25.2-6.9l-2.1-2.9-10.7 7.7c-5.8 4.3-10.6 8-10.6 8.3s1.6 2.7 3.6 5.4c4.9 6.8 12.5 13.3 19.2 16.6 5 2.5 6.8 2.8 15.2 2.8 8.8 0 10-.2 16.3-3.4 9-4.5 19.4-14.3 23.1-21.5 7.8-15.4 2.4-35-14.3-51.7-12.2-12.2-23.3-16.4-50.9-19.4-20.7-2.3-29.1-4.7-37.3-10.8-3.9-2.8-8.5-9.5-10-14.5-1.1-3.7-1-4.7.4-7.6 2-4.3 7.5-8.5 12-9.3 5.5-.9 10.2 2 16.4 10.4 3.1 4 6 7.3 6.5 7.3.7 0 17.5-11.9 20.7-14.6.8-.7-5.5-9-12.3-16.1-8.8-9.3-16.5-13.4-26.3-13.9-3.8-.2-8.5.1-10.7.7m-893.5 31c-7.3 1.4-13.3 5-20.1 11.8-5 5.1-12.7 16.3-33.6 49.1-15 23.4-28.1 44.3-29.2 46.5-6.1 12.1-6.8 25.7-1.8 35.8 5.4 11 21.7 22.9 35.3 25.7 11.8 2.5 24-1.7 33.5-11.3 6.4-6.6 60.8-90.8 64.7-100.2 3.6-8.8 4.1-21 1-29-4.6-12.4-22-25.7-37.3-28.4-6.6-1.2-6.4-1.2-12.5 0m17.7 29.9c4.9 3.5 6.2 5.7 6.2 10.5 0 5.1-1.8 8.2-31.8 55-18.5 28.9-28 42.7-30.2 44.2-6 4.2-14 2.6-19.4-3.7-3.3-4-3.4-9.1-.3-15.1 5.2-10.1 56.1-88 59.3-90.8 4.8-4.3 10.5-4.3 16.2-.1m803.6-12.6c-6.5 4-11.9 7.5-11.9 7.7 0 .8 90.7 149.2 92.1 150.8 1 1.1 2.9.3 11.5-5 5.7-3.4 11-6.8 11.8-7.5 1.1-1-6.3-13.8-44.9-77.1-25.5-41.7-46.4-75.9-46.5-76-.1-.2-5.5 3-12.1 7.1M627 1659c0 4-3.3 12.5-12 30.5-9.4 19.7-12 27.5-12 36.3 0 5.6.5 8 2.8 12.4l2.8 5.6-5.3 1.2c-11.2 2.5-18.5 9.9-27.2 27.8-9.8 19.9-12.1 31-8.5 41.5 1.9 5.6 8.6 13.3 15.3 17.6 4.9 3.2 47.1 23.5 47.6 22.9.6-.9 74.8-158.6 75.2-159.9s-2.1-2.9-10.3-6.8c-5.9-2.8-11.7-5.4-12.8-5.7-1.9-.4-3.3 2-12.6 21.8-5.7 12.3-12.6 26.9-15.2 32.5l-4.9 10.1-5.1-2.1c-2.8-1.2-7.1-4.1-9.6-6.4l-4.4-4.2.4-6.3c.3-5 1.5-8.7 5.7-17.8 12.5-27 15.2-33.3 15.7-37.5l.6-4.3-7.8-3.7c-4.4-2.1-10.3-4.8-13.1-6.1l-5.3-2.4zm5.2 108.3 6.6 3.2-11.3 24c-6.2 13.2-11.8 24.1-12.3 24.3-1.6.5-13.3-5.7-16.4-8.6-4.6-4.3-4-10.1 2.7-24.6 6.2-13.6 8.8-17.7 12.4-20 4.2-2.5 10.8-1.9 18.3 1.7m688.8-100.7c-14.3 4.9-25.7 14.7-29.6 25.5-2 5.7-2 17.2 0 24 2 7.2 14.3 32.9 15.6 32.9 1.9 0 23-11 23-12 0-.5-2.9-6.8-6.5-14.1-5.3-10.6-6.5-14.1-6.5-18 0-5.9 3.1-10 9.6-12.5 5.8-2.2 11.2-.8 14.8 3.9 1.3 1.8 12.7 24.1 25.1 49.7 24.2 49.4 25.4 52.5 22.1 58.8-3.2 6.2-14.2 9.2-19.6 5.5-3.7-2.5-4.5-3.8-10.5-15.6l-5.5-10.7-12 6-12.1 6 6.2 12.1c12.6 24.7 26.9 34 46.2 29.9 8.4-1.7 20.6-8.1 26.4-13.9 11.6-11.4 13.8-25.4 6.8-43.5-3.7-9.8-44.1-91.5-48.6-98.4-10.5-16.1-26.8-21.8-44.9-15.6m315.7 5.2-6.8 6.8.8 19 .8 18.9 9.9-9.6 9.8-9.6-3.2-15.4c-1.8-8.5-3.6-15.7-3.9-16.1-.4-.4-3.7 2.3-7.4 6m-375.9 24c-5.9 2-10.9 4-11.2 4.3s.7 7.5 2.2 16c2 10.6 2.5 15.6 1.8 16-1.6 1-30.9 11-31.1 10.7-.1-.2-3.4-6.6-7.5-14.3-4-7.7-7.3-14.1-7.4-14.2-.4-.5-25.1 7.9-26 8.8-.5.4 17.3 35.3 40.9 80.1 23 43.6 41.9 79.5 42.1 79.7s9.1-2.7 19.9-6.4c18-6.2 19.6-7 19.1-8.9-.5-2.3-29.6-174-29.6-175 0-1.1-2.3-.5-13.2 3.2m5.8 102.2c4 22.3 7.5 41.5 7.7 42.8.3 1.3.1 2-.3 1.5-1-1.1-39-75.1-39.3-76.5-.2-1.1 20.7-8.8 23.2-8.5 1.1.2 3.3 10.5 8.7 40.7m-549.5-20.8c-12.9 39.2-23.7 71.7-24.2 72.2-.4.4-6.8-1.2-14.3-3.7l-13.5-4.5-3.6 11.1c-2 6.2-3.8 11.7-4 12.4-.3.8 13 5.6 39.7 14.4 22.1 7.2 40.7 13.3 41.3 13.5.9.4 8.5-20.3 8.5-23.3 0-.7-6-3-13.2-5.3-7.3-2.3-13.4-4.3-13.6-4.5s10.3-32.6 23.3-72 23.4-72.2 23.2-72.9c-.4-1-22.7-8.6-25.4-8.6-.5 0-11.4 32.1-24.2 71.2m101.8-46.8c-16.3 4.4-24.3 16-30 43.4-1.7 8.4-2.9 15.5-2.7 15.7.6.5 25.3 5.3 25.7 5 .2-.3 1.6-6.7 3.2-14.4 1.5-7.7 3.7-15.7 4.8-17.8 2.9-5.9 8.3-8 15.4-6.2 5.7 1.4 9.7 5.5 10.4 10.5.6 5.1-19 105.2-21.7 110.5-1.1 2.1-3 4.5-4.2 5.3-2.9 2.1-11 2.1-15.4 0-6.8-3.2-7.7-8.9-4.4-26.3 1.1-5.8 1.9-10.6 1.7-10.7-.8-.8-25.3-5.1-25.8-4.6-1.3 1.4-4.9 23.9-4.9 30.3 0 20.4 12 33.8 34.2 38.5 7.5 1.6 16 1.4 23-.6 9.6-2.7 18.8-12.4 23.2-24 1.3-3.6 7-29.7 12.6-58 9.3-47.1 10.1-52.3 9.8-60.5-.5-11.1-3.5-18.3-10.3-24.9-10.1-9.9-30.5-15-44.6-11.2m277.2 8.2c-19 3-34.7 5.6-34.9 5.8-.5.5 2.9 22.8 3.7 24.2.4.7 7.2 0 21.6-2.2 21.8-3.5 26.5-3.9 26.5-2.7 0 .5 1.6 11.7 3.7 25 2 13.4 3.5 24.5 3.2 24.7-.2.2-8.6 1.7-18.6 3.2-16.3 2.4-18.3 3-18.3 4.6 0 2.1 3.1 23.1 3.5 23.6.1.1 7.8-.9 17.1-2.3s17.8-2.7 18.9-2.8c1.8-.2 2.2 1.6 5.6 23.8 2 13.2 3.6 24.1 3.5 24.2-.2.2-10.8 1.9-23.7 3.9s-23.5 3.7-23.7 3.9c-.3.3 3.5 24.6 4 25 .4.4 74.6-11 75.2-11.5.2-.3-5.6-39.7-13-87.5-7.3-47.9-13.4-87.3-13.4-87.8 0-1.3-5.8-.6-40.9 4.9m-206.5 12.6c-.3 5-.6 10.8-.6 12.8v3.6l23.7 1.7c13 1 23.8 1.9 23.9 2 .2.2-3.6 51.1-3.9 51.3-.1.1-7.6-.4-16.7-1.2-9.1-.7-17.7-1.3-19.1-1.3l-2.7-.1-.7 12.6c-.4 6.9-.5 12.7-.4 12.9.2.2 8.4.9 18.1 1.6 9.8.7 18.2 1.5 18.7 1.8.9.6-2.1 47.7-3 48.5-.2.2-11-.5-23.9-1.5s-23.5-1.7-23.7-1.5c-.4.4-2.4 24.8-2 25.2.6.7 75.2 6.1 75.9 5.5.6-.6 14.2-177.1 13.6-177.6-.3-.3-71.2-5.5-74.4-5.5-1.9 0-2.2.7-2.8 9.2m115.4-4.6c-15.7.6-29.1 1.2-29.8 1.3-1.1.1-1.2 2.5-.7 12.3.4 6.8 1 12.6 1.4 12.9.3.4 10.4.2 22.5-.3 12-.5 22-.7 22.3-.4.3.2 1.8 34.3 3.4 75.8 1.6 41.4 3.3 75.5 3.7 75.9.4.3 6.7.3 14.1 0l13.4-.6-.2-8c-.1-4.4-1.5-42.4-3.1-84.5-1.7-42.1-3-78.6-3-81.3v-4.7l-7.7.2c-4.3 0-20.6.7-36.3 1.4m-534.3 42.5c-.4 5.1-.7 12.5-.7 16.4v7.2l12.1 7.7c6.7 4.2 12.3 7.6 12.4 7.4.2-.2-5.4-32.8-6.5-37.5 0-.4-14.3-9.5-15.5-10-.8-.3-1.4 2.5-1.8 8.8"/>
</svg>
